<?xml version="1.0" encoding="utf-8"?>
<!-- Generator: Adobe Illustrator 25.0.1, SVG Export Plug-In . SVG Version: 6.00 Build 0)  -->
<svg version="1.1" id="Layer_1" xmlns="http://www.w3.org/2000/svg" xmlns:xlink="http://www.w3.org/1999/xlink" x="0px" y="0px"
	 viewBox="0 0 159 21" style="enable-background:new 0 0 159 21;" xml:space="preserve">
<style type="text/css">
	.st0{fill:#45ADD7;}
	.st1{fill:#A9D33F;}
	.st2{fill:#D9332E;}
</style>
<g>
	<g>
		<path d="M45.5,19.6L45.4,10l-4.7,7.9h-2.3l-4.7-7.6v9.4H29V1.4h4.3l6.4,10.5L46,1.4h4.3l0.1,18.3L45.5,19.6L45.5,19.6z"/>
		<path d="M66.1,16.1h-7.7L57,19.6h-5.3l8.1-18.3h5.1L73,19.6h-5.4L66.1,16.1z M64.6,12.3l-2.3-5.8L60,12.3H64.6z"/>
		<path d="M86.4,10.1H91v7.6c-1,0.7-2.2,1.3-3.6,1.7C86,19.8,84.6,20,83.3,20c-1.9,0-3.6-0.4-5.2-1.2c-1.5-0.8-2.7-1.9-3.6-3.4
			c-0.9-1.4-1.3-3.1-1.3-4.9s0.4-3.5,1.3-4.9c0.9-1.4,2.1-2.6,3.6-3.4C79.7,1.4,81.4,1,83.4,1c1.7,0,3.2,0.3,4.6,0.9
			c1.4,0.6,2.5,1.4,3.4,2.5l-3.3,3c-1.2-1.4-2.7-2-4.4-2c-1.6,0-2.8,0.5-3.8,1.4s-1.4,2.2-1.4,3.8c0,1,0.2,1.9,0.7,2.7
			c0.4,0.8,1,1.4,1.8,1.9s1.7,0.7,2.7,0.7s1.9-0.2,2.8-0.6L86.4,10.1L86.4,10.1z"/>
		<path d="M111.6,1.4v18.3h-4.3L99.2,10v9.7h-5.1V1.4h4.3l8.1,9.7V1.4H111.6z"/>
		<path d="M115.3,1.4h5.2v18.3h-5.2V1.4z"/>
		<path d="M129.3,5.4v4h8.1v4h-8.1v6.3h-5.2V1.4h14.3v4H129.3z"/>
		<path d="M150.6,13.1v6.6h-5.2V13l-7-11.6h5.5l4.3,7.3l4.3-7.3h5L150.6,13.1z"/>
	</g>
	<g>
		<g>
			<path class="st0" d="M4.2,20.2c-1.6,0-2.9-1.3-2.9-2.9V3.7c0-1.6,1.3-2.9,2.9-2.9c1.6,0,2.9,1.3,2.9,2.9v13.5
				C7.1,18.9,5.8,20.2,4.2,20.2z M4.2,2.7c-0.6,0-1,0.4-1,1v13.5c0,0.6,0.4,1,1,1s1-0.4,1-1V3.7C5.2,3.2,4.7,2.7,4.2,2.7z"/>
		</g>
		<g>
			<path class="st0" d="M4.2,2.5c0.7,0,1.2,0.5,1.2,1.2v13.5c0,0.7-0.5,1.2-1.2,1.2S3,17.9,3,17.2V3.7C3,3.1,3.5,2.5,4.2,2.5 M4.2,1
				L4.2,1C2.7,1,1.5,2.2,1.5,3.7v13.5c0,1.5,1.2,2.7,2.7,2.7l0,0c1.5,0,2.7-1.2,2.7-2.7V3.7C6.9,2.2,5.7,1,4.2,1L4.2,1z"/>
		</g>
		<g>
			<path class="st1" d="M20.1,20.2c-1.6,0-2.9-1.3-2.9-2.9V3.7c0-1.6,1.3-2.9,2.9-2.9c1.6,0,2.9,1.3,2.9,2.9v13.5
				C23,18.9,21.7,20.2,20.1,20.2z M20.1,2.7c-0.6,0-1,0.4-1,1v13.5c0,0.6,0.4,1,1,1s1-0.4,1-1V3.7C21.1,3.2,20.6,2.7,20.1,2.7z"/>
		</g>
		<g>
			<path class="st1" d="M20.1,2.5c0.7,0,1.2,0.5,1.2,1.2v13.5c0,0.7-0.5,1.2-1.2,1.2s-1.2-0.5-1.2-1.2V3.7
				C18.9,3.1,19.4,2.5,20.1,2.5 M20.1,1L20.1,1c-1.5,0-2.7,1.2-2.7,2.7v13.5c0,1.5,1.2,2.7,2.7,2.7l0,0c1.5,0,2.7-1.2,2.7-2.7V3.7
				C22.8,2.2,21.6,1,20.1,1L20.1,1z"/>
		</g>
		<g>
			<path class="st2" d="M12.1,20.2c-1.6,0-2.9-1.3-2.9-2.9V3.7c0-1.6,1.3-2.9,2.9-2.9c1.6,0,2.9,1.3,2.9,2.9v13.5
				C15.1,18.9,13.7,20.2,12.1,20.2z M12.1,2.7c-0.6,0-1,0.4-1,1v13.5c0,0.6,0.4,1,1,1s1-0.4,1-1V3.7C13.1,3.2,12.7,2.7,12.1,2.7z"/>
		</g>
		<g>
			<path class="st2" d="M12.1,2.5c0.7,0,1.2,0.5,1.2,1.2v13.5c0,0.7-0.5,1.2-1.2,1.2s-1.2-0.5-1.2-1.2V3.7
				C10.9,3.1,11.5,2.5,12.1,2.5 M12.1,1L12.1,1c-1.5,0-2.7,1.2-2.7,2.7v13.5c0,1.5,1.2,2.7,2.7,2.7l0,0c1.5,0,2.7-1.2,2.7-2.7V3.7
				C14.9,2.2,13.6,1,12.1,1L12.1,1z"/>
		</g>
	</g>
</g>
</svg>
