<?xml version="1.0" encoding="utf-8"?>
<!-- Generator: Adobe Illustrator 24.2.1, SVG Export Plug-In . SVG Version: 6.00 Build 0)  -->
<svg version="1.1" id="Layer_1" xmlns="http://www.w3.org/2000/svg" xmlns:xlink="http://www.w3.org/1999/xlink" x="0px" y="0px"
	 viewBox="0 0 159 21" style="enable-background:new 0 0 159 21;" xml:space="preserve">
<style type="text/css">
	.st0{fill:#45ADD7;}
	.st1{fill:#A9D33F;}
	.st2{fill:#D9332E;}
</style>
<g>
	<g>
		<path d="M19.5,19.6L19.4,10l-4.7,7.9h-2.3l-4.7-7.6v9.4H3V1.4h4.3l6.4,10.5l6.3-10.5h4.3l0.1,18.3H19.5z"/>
		<path d="M40.1,16.1h-7.7L31,19.6h-5.3l8.1-18.3h5.1l8.1,18.3h-5.4L40.1,16.1z M38.6,12.3l-2.3-5.8l-2.3,5.8H38.6z"/>
		<path d="M60.4,10.1h4.6v7.6c-1,0.7-2.2,1.3-3.6,1.7C60,19.8,58.6,20,57.3,20c-1.9,0-3.6-0.4-5.2-1.2c-1.5-0.8-2.7-1.9-3.6-3.4
			c-0.9-1.4-1.3-3.1-1.3-4.9c0-1.8,0.4-3.5,1.3-4.9c0.9-1.4,2.1-2.6,3.6-3.4C53.7,1.4,55.4,1,57.4,1c1.7,0,3.2,0.3,4.6,0.9
			c1.4,0.6,2.5,1.4,3.4,2.5l-3.3,3c-1.2-1.4-2.7-2-4.4-2c-1.6,0-2.8,0.5-3.8,1.4s-1.4,2.2-1.4,3.8c0,1,0.2,1.9,0.7,2.7
			c0.4,0.8,1,1.4,1.8,1.9s1.7,0.7,2.7,0.7c1,0,1.9-0.2,2.8-0.6V10.1z"/>
		<path d="M85.6,1.4v18.3h-4.3l-8.1-9.7v9.7h-5.1V1.4h4.3l8.1,9.7V1.4H85.6z"/>
		<path d="M89.3,1.4h5.2v18.3h-5.2V1.4z"/>
		<path d="M103.3,5.4v4h8.1v4h-8.1v6.3h-5.2V1.4h14.3v4H103.3z"/>
		<path d="M124.6,13.1v6.6h-5.2V13l-7-11.6h5.5l4.3,7.3l4.3-7.3h5L124.6,13.1z"/>
	</g>
	<g>
		<g>
			<path class="st0" d="M137.2,20.2c-1.6,0-2.9-1.3-2.9-2.9V3.7c0-1.6,1.3-2.9,2.9-2.9c1.6,0,2.9,1.3,2.9,2.9v13.5
				C140.1,18.9,138.8,20.2,137.2,20.2z M137.2,2.7c-0.6,0-1,0.4-1,1v13.5c0,0.6,0.4,1,1,1s1-0.4,1-1V3.7
				C138.2,3.2,137.7,2.7,137.2,2.7z"/>
		</g>
		<g>
			<path class="st0" d="M137.2,2.5c0.7,0,1.2,0.5,1.2,1.2v13.5c0,0.7-0.5,1.2-1.2,1.2s-1.2-0.5-1.2-1.2V3.7
				C136,3.1,136.5,2.5,137.2,2.5 M137.2,1L137.2,1c-1.5,0-2.7,1.2-2.7,2.7v13.5c0,1.5,1.2,2.7,2.7,2.7l0,0c1.5,0,2.7-1.2,2.7-2.7
				V3.7C139.9,2.2,138.7,1,137.2,1L137.2,1z"/>
		</g>
		<g>
			<path class="st1" d="M153.1,20.2c-1.6,0-2.9-1.3-2.9-2.9V3.7c0-1.6,1.3-2.9,2.9-2.9c1.6,0,2.9,1.3,2.9,2.9v13.5
				C156,18.9,154.7,20.2,153.1,20.2z M153.1,2.7c-0.6,0-1,0.4-1,1v13.5c0,0.6,0.4,1,1,1c0.6,0,1-0.4,1-1V3.7
				C154.1,3.2,153.6,2.7,153.1,2.7z"/>
		</g>
		<g>
			<path class="st1" d="M153.1,2.5c0.7,0,1.2,0.5,1.2,1.2v13.5c0,0.7-0.5,1.2-1.2,1.2c-0.7,0-1.2-0.5-1.2-1.2V3.7
				C151.9,3.1,152.4,2.5,153.1,2.5 M153.1,1L153.1,1c-1.5,0-2.7,1.2-2.7,2.7v13.5c0,1.5,1.2,2.7,2.7,2.7h0c1.5,0,2.7-1.2,2.7-2.7
				V3.7C155.8,2.2,154.6,1,153.1,1L153.1,1z"/>
		</g>
		<g>
			<path class="st2" d="M145.1,20.2c-1.6,0-2.9-1.3-2.9-2.9V3.7c0-1.6,1.3-2.9,2.9-2.9c1.6,0,2.9,1.3,2.9,2.9v13.5
				C148.1,18.9,146.7,20.2,145.1,20.2z M145.1,2.7c-0.6,0-1,0.4-1,1v13.5c0,0.6,0.4,1,1,1c0.6,0,1-0.4,1-1V3.7
				C146.1,3.2,145.7,2.7,145.1,2.7z"/>
		</g>
		<g>
			<path class="st2" d="M145.1,2.5c0.7,0,1.2,0.5,1.2,1.2v13.5c0,0.7-0.5,1.2-1.2,1.2s-1.2-0.5-1.2-1.2V3.7
				C143.9,3.1,144.5,2.5,145.1,2.5 M145.1,1L145.1,1c-1.5,0-2.7,1.2-2.7,2.7v13.5c0,1.5,1.2,2.7,2.7,2.7l0,0c1.5,0,2.7-1.2,2.7-2.7
				V3.7C147.9,2.2,146.6,1,145.1,1L145.1,1z"/>
		</g>
	</g>
</g>
</svg>
