<?xml version="1.0" encoding="utf-8"?>
<!-- Generator: Adobe Illustrator 24.2.1, SVG Export Plug-In . SVG Version: 6.00 Build 0)  -->
<svg version="1.1" id="Layer_1" xmlns="http://www.w3.org/2000/svg" xmlns:xlink="http://www.w3.org/1999/xlink" x="0px" y="0px"
	 viewBox="0 0 2000 2000" style="enable-background:new 0 0 2000 2000;" xml:space="preserve">
<style type="text/css">
	.st0{fill:#181A1B;}
</style>
<g>
	<path class="st0" d="M328.5,327.4c55.9,0,101.4,45.5,101.4,101.4v1142.5c0,55.9-45.5,101.4-101.4,101.4s-101.4-45.5-101.4-101.4
		V428.8C227.1,372.9,272.6,327.4,328.5,327.4 M328.5,196.7L328.5,196.7c-128.2,0-232.1,103.9-232.1,232.1v1142.5
		c0,128.2,103.9,232.1,232.1,232.1h0c128.2,0,232.1-103.9,232.1-232.1V428.8C560.6,300.6,456.7,196.7,328.5,196.7L328.5,196.7z"/>
	<path class="st0" d="M1671.5,327.4c55.9,0,101.4,45.5,101.4,101.4v1142.5c0,55.9-45.5,101.4-101.4,101.4
		c-55.9,0-101.4-45.5-101.4-101.4V428.8C1570.1,372.9,1615.6,327.4,1671.5,327.4 M1671.5,196.7L1671.5,196.7
		c-128.2,0-232.1,103.9-232.1,232.1v1142.5c0,128.2,103.9,232.1,232.1,232.1h0c128.2,0,232.1-103.9,232.1-232.1V428.8
		C1903.6,300.6,1799.7,196.7,1671.5,196.7L1671.5,196.7z"/>
	<path class="st0" d="M1000,327.4c55.9,0,101.4,45.5,101.4,101.4v1142.5c0,55.9-45.5,101.4-101.4,101.4s-101.4-45.5-101.4-101.4
		V428.8C898.6,372.9,944.1,327.4,1000,327.4 M1000,196.7L1000,196.7c-128.2,0-232.1,103.9-232.1,232.1v1142.5
		c0,128.2,103.9,232.1,232.1,232.1h0c128.2,0,232.1-103.9,232.1-232.1V428.8C1232.1,300.6,1128.2,196.7,1000,196.7L1000,196.7z"/>
</g>
</svg>
