<?xml version="1.0" encoding="utf-8"?>
<!-- Generator: Adobe Illustrator 25.0.1, SVG Export Plug-In . SVG Version: 6.00 Build 0)  -->
<svg version="1.1" id="Layer_1" xmlns="http://www.w3.org/2000/svg" xmlns:xlink="http://www.w3.org/1999/xlink" x="0px" y="0px"
	 viewBox="0 0 520 520" style="enable-background:new 0 0 520 520;" xml:space="preserve">
<style type="text/css">
	.st0{fill:#FFFFFF;}
</style>
<g>
	<g>
		<g>
			<path class="st0" d="M76.82,483.5C39.95,483.5,10,453.55,10,416.68V103.32C10,66.45,39.95,36.5,76.82,36.5
				c36.87,0,66.82,29.95,66.82,66.82v311.06C143.64,453.55,113.69,483.5,76.82,483.5z M76.82,80.28c-13.83,0-23.04,9.22-23.04,23.04
				v311.06c0,13.82,9.22,23.04,23.04,23.04s23.04-9.22,23.04-23.04V103.32C99.86,91.8,88.34,80.28,76.82,80.28z"/>
		</g>
		<g>
			<path class="st0" d="M76.82,75.67c16.13,0,27.65,11.52,27.65,27.65v311.06c0,16.13-11.52,27.65-27.65,27.65
				s-27.65-11.52-27.65-27.65V103.32C49.17,89.49,60.69,75.67,76.82,75.67 M76.82,41.11L76.82,41.11
				c-34.56,0-62.21,27.65-62.21,62.21v311.06c0,34.56,27.65,62.21,62.21,62.21l0,0c34.56,0,62.21-27.65,62.21-62.21V103.32
				C139.03,68.76,111.38,41.11,76.82,41.11L76.82,41.11z"/>
		</g>
		<g>
			<path class="st0" d="M443.18,483.5c-36.87,0-66.82-29.95-66.82-66.82V103.32c0-36.87,29.95-66.82,66.82-66.82
				c36.87,0,66.82,29.95,66.82,66.82v311.06C510,453.55,480.05,483.5,443.18,483.5z M443.18,80.28c-13.83,0-23.04,9.22-23.04,23.04
				v311.06c0,13.82,9.22,23.04,23.04,23.04c13.83,0,23.04-9.22,23.04-23.04V103.32C466.22,91.8,454.7,80.28,443.18,80.28z"/>
		</g>
		<g>
			<path class="st0" d="M443.18,75.67c16.13,0,27.65,11.52,27.65,27.65v311.06c0,16.13-11.52,27.65-27.65,27.65
				c-16.13,0-27.65-11.52-27.65-27.65V103.32C415.53,89.49,427.05,75.67,443.18,75.67 M443.18,41.11L443.18,41.11
				c-34.56,0-62.21,27.65-62.21,62.21v311.06c0,34.56,27.65,62.21,62.21,62.21l0,0c34.56,0,62.21-27.65,62.21-62.21V103.32
				C505.39,68.76,477.74,41.11,443.18,41.11L443.18,41.11z"/>
		</g>
		<g>
			<path class="st0" d="M258.85,483.5c-36.87,0-66.82-29.95-66.82-66.82V103.32c0-36.87,29.95-66.82,66.82-66.82
				c36.87,0,66.82,29.95,66.82,66.82v311.06C327.97,453.55,295.71,483.5,258.85,483.5z M258.85,80.28
				c-13.83,0-23.04,9.22-23.04,23.04v311.06c0,13.82,9.22,23.04,23.04,23.04c13.83,0,23.04-9.22,23.04-23.04V103.32
				C281.89,91.8,272.67,80.28,258.85,80.28z"/>
		</g>
		<g>
			<path class="st0" d="M258.85,75.67c16.13,0,27.65,11.52,27.65,27.65v311.06c0,16.13-11.52,27.65-27.65,27.65
				s-27.65-11.52-27.65-27.65V103.32C231.2,89.49,245.02,75.67,258.85,75.67 M258.85,41.11L258.85,41.11
				c-34.56,0-62.21,27.65-62.21,62.21v311.06c0,34.56,27.65,62.21,62.21,62.21l0,0c34.56,0,62.21-27.65,62.21-62.21V103.32
				C323.36,68.76,293.41,41.11,258.85,41.11L258.85,41.11z"/>
		</g>
	</g>
</g>
</svg>
