<?xml version="1.0" encoding="utf-8"?>
<!-- Generator: Adobe Illustrator 24.2.1, SVG Export Plug-In . SVG Version: 6.00 Build 0)  -->
<svg version="1.1" id="Layer_1" xmlns="http://www.w3.org/2000/svg" xmlns:xlink="http://www.w3.org/1999/xlink" x="0px" y="0px"
	 viewBox="0 0 2000 2000" style="enable-background:new 0 0 2000 2000;" xml:space="preserve">
<g id="KcoeHT.tif">
	<g>
		<path d="M1114.1,437.5c22,0,43.9,0,65.9,0c14.9,1.4,29.8,2.7,44.6,4.4c24.6,2.8,49.1,5.8,73.5,8.8c0,58.3,0,114.9,0,171.9
			c-3.4,0.2-6.3,0.6-9.2,0.6c-31.8,0.3-63.7-0.4-95.5,1.2c-53.9,2.8-90.7,35.3-94.6,88.4c-3.6,49.1-1.5,98.7-1.9,148.1
			c0,0.6,0.7,1.2,1.8,3c63.2,0,127,0,191.8,0c-10.4,68-20.7,134.7-31.1,202.3c-54.9,0-108.5,0-163,0c0,163.1,0,325.2,0,487.5
			c-5.1,0.8-9.4,1.7-13.8,2.2c-19.6,2.3-39.2,4.4-58.7,6.6c-24.9,0-49.8,0-74.7,0c-5-0.7-10-1.5-15-2.1c-18.4-2-36.8-4-56.1-6
			c0-163.7,0-325.7,0-488.9c-59.5,0-117.9,0-176.4,0c0-67.9,0-134.6,0-202.5c59.2,0,117.6,0,176.8,0c0-5.1,0-9.1,0-13
			c0-45-0.5-90.1,0.2-135.1c0.4-22.6,1.6-45.4,4.8-67.8c14.8-105,81.2-177.4,184.3-201.4C1083.1,442.1,1098.7,440.2,1114.1,437.5z"
			/>
	</g>
</g>
<g id="t4mVVN.tif">
	<g>
		<path d="M-555.5,1001.6c-1.7,80-2.5,160-5.2,240c-2,60.3-14.4,118.6-45.4,171.2c-47.5,80.7-119.4,127.7-210.8,142.4
			c-46.3,7.5-93.7,10.4-140.7,10.6c-135.3,0.6-270.7-0.3-406-2.6c-65.7-1.1-128.8-16.1-184.6-52.7c-73.6-48.2-117-117.4-130.2-203.4
			c-7.7-50.2-10.2-101.5-10.9-152.4c-1.4-113.3-0.8-226.7,0.2-340c0.5-53.6,2.8-107.3,19-159.1c37.2-118.6,118.7-188,239.6-210.3
			c39.3-7.3,79.9-9.9,119.9-10.3c124.5-1.3,249.1-1.1,373.7-0.2c54,0.4,108.1,3,160.3,19.8c117.5,37.7,185.3,119.1,208.2,238.7
			c13.6,70.9,10.3,143,11.3,214.7c0.4,31.1,0.1,62.3,0.1,93.4C-556.5,1001.5-556,1001.5-555.5,1001.6z M-656.9,1000.3
			c-0.8,0-1.6,0-2.5-0.1c0-48,1.3-96.1-0.4-144.1c-1.7-49.2-2.9-98.8-10.5-147.3c-11.3-72.1-51.8-124.3-121.1-151.4
			c-35.9-14-73.7-18.8-111.9-19.1c-122.8-1.2-245.7-2.8-368.5-2.1c-47.8,0.3-96.2,2.8-143.3,10.3c-72,11.4-124.2,51.8-151.4,121.1
			c-14,35.9-18.8,73.7-19.1,111.9c-1.2,122.8-2.8,245.7-2.1,368.6c0.3,47.8,2.8,96.2,10.3,143.4c11.5,72.6,52.4,124.9,122.3,151.8
			c35.5,13.7,72.9,18.2,110.7,18.7c106,1.3,211.9,2.6,317.9,2.5c53.6-0.1,107.3-2,160.7-5.3c41.8-2.6,81.8-13.9,116.7-38.6
			c56.4-39.9,80.5-97.7,84.1-163.7C-660.1,1171.6-659.3,1085.9-656.9,1000.3z"/>
		<path d="M-1414.6,1000.3c0-161.1,130.1-291.1,291.2-291c161.1,0.1,290.9,130.4,290.6,291.6c-0.2,160.5-130.1,290.2-290.6,290.3
			C-1284.5,1291.4-1414.6,1161.4-1414.6,1000.3z M-934.6,1000.6c0.3-103.6-84.9-189.2-188.8-189.5
			c-103.6-0.3-189.1,84.9-189.4,188.8c-0.3,103.6,84.9,189.2,188.8,189.5C-1020.5,1189.7-934.9,1104.5-934.6,1000.6z"/>
		<path d="M-752.9,697.8c-0.2,36.6-31.1,67.5-67.8,67.8c-37.1,0.3-68.7-31.3-68.5-68.4c0.2-36.6,31.2-67.7,67.7-67.9
			C-784.4,629.2-752.7,660.8-752.9,697.8z"/>
	</g>
</g>
<g id="vllmdD.tif">
	<g>
		<path d="M1080.7-143.1c-45.4,0-90.9,0-136.3,0c-7.9-0.9-15.7-2.4-23.6-2.5c-99.3-2.1-198.6-2.7-297.8-6.3
			c-71-2.5-142-6.9-212.6-14.1c-95.5-9.8-161.2-57.9-188.7-153.7c-15.4-53.5-19.9-108.1-24.6-162.9c-2.8-32.8-5.2-65.6-7.7-98.3
			c0-81,0-161.9,0-242.9c1.3-14.5,2.9-29.1,4-43.6c5.5-70.8,7.3-141.9,25.4-211.3c26.1-100.1,88-159.1,192.4-169.2
			c48.2-4.7,96.7-8,145.1-9.3c150.9-4.3,301.8-11.3,452.7-9.8c192,1.9,384,8.8,575.8,18.1c94.4,4.6,159.7,54.9,190,147.6
			c23.2,71,26.3,144.5,30.5,217.7c7.6,134.8,7.7,269.7-3.7,404.3c-4.3,50.5-10.2,101.5-22.6,150.4
			c-26.2,103.2-89.6,155.4-194.5,166.2c-39,4-78.3,6.6-117.5,7.8c-120.8,3.7-241.7,6.3-362.5,9.5
			C1096.5-145.3,1088.6-144,1080.7-143.1z M988-240.4c146.4-3.4,285-6.1,423.7-10.2c55.8-1.7,111.5-5.9,167.1-10.1
			c56.7-4.2,91.7-30.3,105.1-86c11.5-47.9,18.7-97.4,22.3-146.6c10.4-142.6,10.5-285.5,0-428.1c-3.6-49.2-10.7-98.7-22.3-146.6
			c-14.1-58-48.2-83.9-107.8-87.3c-101-5.8-202.1-12.6-303.3-14.1c-163.8-2.3-327.7-2.5-491.4-0.1c-117.7,1.7-235.4,8.2-353,14.5
			c-59.3,3.1-96.7,25.6-115.4,91.3c-19,66.9-22.6,135.5-23.5,203.9c-1.7,122.5,0.3,245.1,3.5,367.6c1.4,54.9,6.9,109.8,27,162.3
			c13.2,34.5,36.9,55.2,71.5,61.7c37.9,7,76.4,12.9,114.8,14.2C669.4-248.4,832.5-244.6,988-240.4z"/>
		<path d="M1265.5-706.1c-138,80.7-272.6,159.4-409.3,239.4c0-160.5,0-317.8,0-478.8C992.6-865.7,1127.1-787.1,1265.5-706.1z"/>
	</g>
</g>
</svg>
