<?xml version="1.0" encoding="utf-8"?>
<!-- Generator: Adobe Illustrator 24.2.1, SVG Export Plug-In . SVG Version: 6.00 Build 0)  -->
<svg version="1.1" id="Layer_1" xmlns="http://www.w3.org/2000/svg" xmlns:xlink="http://www.w3.org/1999/xlink" x="0px" y="0px"
	 viewBox="0 0 2000 2000" style="enable-background:new 0 0 2000 2000;" xml:space="preserve">
<g id="KcoeHT.tif">
	<g>
		<path d="M-1008.2-802.8c22,0,43.9,0,65.9,0c14.9,1.4,29.8,2.7,44.6,4.4c24.6,2.8,49.1,5.8,73.5,8.8c0,58.3,0,114.9,0,171.9
			c-3.4,0.2-6.3,0.6-9.2,0.6c-31.8,0.3-63.7-0.4-95.5,1.2c-53.9,2.8-90.7,35.3-94.6,88.4c-3.6,49.1-1.5,98.7-1.9,148.1
			c0,0.6,0.7,1.2,1.8,3c63.2,0,127,0,191.8,0c-10.4,68-20.7,134.7-31.1,202.3c-54.9,0-108.5,0-163,0c0,163.1,0,325.2,0,487.5
			c-5.1,0.8-9.4,1.7-13.8,2.2c-19.6,2.3-39.2,4.4-58.7,6.6c-24.9,0-49.8,0-74.7,0c-5-0.7-10-1.5-15-2.1c-18.4-2-36.8-4-56.1-6
			c0-163.7,0-325.7,0-488.9c-59.5,0-117.9,0-176.4,0c0-67.9,0-134.6,0-202.5c59.2,0,117.6,0,176.8,0c0-5.1,0-9.1,0-13
			c0-45-0.5-90.1,0.2-135.1c0.4-22.6,1.6-45.4,4.8-67.8c14.8-105,81.2-177.4,184.3-201.4C-1039.2-798.3-1023.6-800.2-1008.2-802.8z"
			/>
	</g>
</g>
<g id="t4mVVN.tif">
	<g>
		<path d="M-555.5,1001.6c-1.7,80-2.5,160-5.2,240c-2,60.3-14.4,118.6-45.4,171.2c-47.5,80.7-119.4,127.7-210.8,142.4
			c-46.3,7.5-93.7,10.4-140.7,10.6c-135.3,0.6-270.7-0.3-406-2.6c-65.7-1.1-128.8-16.1-184.6-52.7c-73.6-48.2-117-117.4-130.2-203.4
			c-7.7-50.2-10.2-101.5-10.9-152.4c-1.4-113.3-0.8-226.7,0.2-340c0.5-53.6,2.8-107.3,19-159.1c37.2-118.6,118.7-188,239.6-210.3
			c39.3-7.3,79.9-9.9,119.9-10.3c124.5-1.3,249.1-1.1,373.7-0.2c54,0.4,108.1,3,160.3,19.8c117.5,37.7,185.3,119.1,208.2,238.7
			c13.6,70.9,10.3,143,11.3,214.7c0.4,31.1,0.1,62.3,0.1,93.4C-556.5,1001.5-556,1001.5-555.5,1001.6z M-656.9,1000.3
			c-0.8,0-1.6,0-2.5-0.1c0-48,1.3-96.1-0.4-144.1c-1.7-49.2-2.9-98.8-10.5-147.3c-11.3-72.1-51.8-124.3-121.1-151.4
			c-35.9-14-73.7-18.8-111.9-19.1c-122.8-1.2-245.7-2.8-368.5-2.1c-47.8,0.3-96.2,2.8-143.3,10.3c-72,11.4-124.2,51.8-151.4,121.1
			c-14,35.9-18.8,73.7-19.1,111.9c-1.2,122.8-2.8,245.7-2.1,368.6c0.3,47.8,2.8,96.2,10.3,143.4c11.5,72.6,52.4,124.9,122.3,151.8
			c35.5,13.7,72.9,18.2,110.7,18.7c106,1.3,211.9,2.6,317.9,2.5c53.6-0.1,107.3-2,160.7-5.3c41.8-2.6,81.8-13.9,116.7-38.6
			c56.4-39.9,80.5-97.7,84.1-163.7C-660.1,1171.6-659.3,1085.9-656.9,1000.3z"/>
		<path d="M-1414.6,1000.3c0-161.1,130.1-291.1,291.2-291c161.1,0.1,290.9,130.4,290.6,291.6c-0.2,160.5-130.1,290.2-290.6,290.3
			C-1284.5,1291.4-1414.6,1161.4-1414.6,1000.3z M-934.6,1000.6c0.3-103.6-84.9-189.2-188.8-189.5
			c-103.6-0.3-189.1,84.9-189.4,188.8c-0.3,103.6,84.9,189.2,188.8,189.5C-1020.5,1189.7-934.9,1104.5-934.6,1000.6z"/>
		<path d="M-752.9,697.8c-0.2,36.6-31.1,67.5-67.8,67.8c-37.1,0.3-68.7-31.3-68.5-68.4c0.2-36.6,31.2-67.7,67.7-67.9
			C-784.4,629.2-752.7,660.8-752.9,697.8z"/>
	</g>
</g>
<g id="vllmdD.tif">
	<g>
		<path d="M1065,1452.9c-36.6,0-73.2,0-109.8,0c-6.3-0.7-12.7-1.9-19-2c-80-1.7-160-2.2-240-5c-57.2-2.1-114.4-5.5-171.3-11.4
			c-76.9-7.9-129.8-46.7-152-123.9c-12.4-43.1-16.1-87.1-19.8-131.3c-2.3-26.4-4.2-52.8-6.2-79.2c0-65.2,0-130.5,0-195.7
			c1.1-11.7,2.3-23.4,3.2-35.2c4.4-57,5.9-114.3,20.5-170.2c21-80.6,70.9-128.2,155-136.4c38.8-3.8,77.9-6.4,116.9-7.5
			c121.6-3.4,243.2-9.1,364.8-7.9c154.7,1.5,309.4,7.1,464,14.6c76,3.7,128.7,44.3,153.1,119c18.7,57.2,21.2,116.4,24.6,175.4
			c6.2,108.6,6.2,217.3-3,325.8c-3.5,40.7-8.2,81.8-18.2,121.2c-21.1,83.2-72.2,125.2-156.8,133.9c-31.5,3.2-63.1,5.3-94.7,6.3
			c-97.4,3-194.7,5.1-292.1,7.6C1077.7,1451.2,1071.4,1452.3,1065,1452.9z M990.4,1374.6c117.9-2.8,229.7-4.9,341.4-8.2
			c44.9-1.3,89.8-4.8,134.7-8.1c45.7-3.4,73.9-24.5,84.7-69.3c9.3-38.6,15.1-78.5,18-118.1c8.4-114.9,8.4-230,0-345
			c-2.9-39.6-8.6-79.5-18-118.1c-11.3-46.8-38.8-67.6-86.9-70.3c-81.4-4.7-162.9-10.2-244.4-11.3c-132-1.9-264-2-396,0
			c-94.9,1.4-189.7,6.6-284.5,11.6c-47.7,2.5-77.9,20.6-93,73.5c-15.3,53.9-18.2,109.2-19,164.3c-1.4,98.7,0.2,197.5,2.8,296.2
			c1.2,44.2,5.6,88.4,21.8,130.8c10.6,27.8,29.7,44.5,57.6,49.7c30.5,5.7,61.5,10.4,92.5,11.4
			C733.6,1368.1,865.1,1371.2,990.4,1374.6z"/>
		<path d="M1213.9,999.3c-111.2,65-219.6,128.5-329.8,192.9c0-129.3,0-256.1,0-385.8C994,870.7,1102.4,934.1,1213.9,999.3z"/>
	</g>
</g>
</svg>
